<svg width="512" height="512" viewBox="0 0 512 512" fill="none" xmlns="http://www.w3.org/2000/svg">
<rect width="512" height="512" fill="white"/>
<path d="M255.998 400.137C346.964 400.137 420.725 332.525 420.725 249.137C420.725 165.748 346.964 98.1367 255.998 98.1367C165.032 98.1367 91.2705 165.748 91.2705 249.137C91.2705 287.646 106.993 322.77 132.873 349.437C140.78 357.619 146.418 368.473 143.599 379.473C140.512 391.501 134.736 402.672 126.705 412.144C133.132 413.298 139.65 413.874 146.18 413.864C169.644 413.864 191.388 406.506 209.234 393.969C224.059 397.995 239.763 400.137 255.998 400.137Z" fill="url(#paint0_radial_108_42)"/>
<defs>
<radialGradient id="paint0_radial_108_42" cx="0" cy="0" r="1" gradientTransform="matrix(85.6543 300.537 -544.371 142.488 255.998 103.614)" gradientUnits="userSpaceOnUse">
<stop stop-color="#00C1E8"/>
<stop offset="1" stop-color="#00FEC3"/>
</radialGradient>
</defs>
</svg>
